name C:\Users\u0101727\Documents\MyRepositories\upper-imu-dc\Results\main_tracking\Case_43\FLX01_angularVelocities_bodyFrame.mot
datacolumns 4
datarows 70
range 3.51000000 4.20000000
endheader 
time	radius_imu_x	radius_imu_y	radius_imu_z	
          3.51000000	          0.02800691	          0.09296373	          0.05279745	
          3.52000000	          0.03066227	          0.09060087	          0.05259624	
          3.53000000	          0.03340221	          0.08815104	          0.05211649	
          3.54000000	          0.03618235	          0.08561973	          0.05143293	
          3.55000000	          0.03896021	          0.08300589	          0.05062473	
          3.56000000	          0.04169852	          0.08029652	          0.04977449	
          3.57000000	          0.04436820	          0.07746267	          0.04896744	
          3.58000000	          0.04695071	          0.07445758	          0.04829075	
          3.59000000	          0.04943941	          0.07121737	          0.04783301	
          3.60000000	          0.05183975	          0.06766437	          0.04768367	
          3.61000000	          0.05416835	          0.06371263	          0.04793241	
          3.62000000	          0.05645120	          0.05927504	          0.04866856	
          3.63000000	          0.05872124	          0.05427041	          0.04998059	
          3.64000000	          0.06101571	          0.04862988	          0.05195543	
          3.65000000	          0.06337354	          0.04230155	          0.05467789	
          3.66000000	          0.06583279	          0.03525327	          0.05822994	
          3.67000000	          0.06842841	          0.02747365	          0.06269003	
          3.68000000	          0.07119059	          0.01897189	          0.06813220	
          3.69000000	          0.07414372	          0.00977678	          0.07462486	
          3.70000000	          0.07730614	         -0.00006487	          0.08222932	
          3.71000000	          0.08069044	         -0.01049037	          0.09099813	
          3.72000000	          0.08430389	         -0.02142356	          0.10097365	
          3.73000000	          0.08814880	         -0.03277739	          0.11218711	
          3.74000000	          0.09222270	         -0.04445682	          0.12465798	
          3.75000000	          0.09651849	         -0.05636267	          0.13839404	
          3.76000000	          0.10102462	         -0.06839677	          0.15339167	
          3.77000000	          0.10572551	         -0.08046759	          0.16963669	
          3.78000000	          0.11060225	         -0.09249527	          0.18710543	
          3.79000000	          0.11563364	         -0.10441457	          0.20576586	
          3.80000000	          0.12079748	         -0.11617553	          0.22557873	
          3.81000000	          0.12607172	         -0.12774271	          0.24649874	
          3.82000000	          0.13143539	         -0.13909406	          0.26847575	
          3.83000000	          0.13686946	         -0.15022043	          0.29145586	
          3.84000000	          0.14235784	         -0.16112576	          0.31538248	
          3.85000000	          0.14788855	         -0.17182715	          0.34019691	
          3.86000000	          0.15345503	         -0.18235389	          0.36583868	
          3.87000000	          0.15905729	         -0.19274499	          0.39224559	
          3.88000000	          0.16470284	         -0.20304553	          0.41935363	
          3.89000000	          0.17040737	         -0.21330279	          0.44709664	
          3.90000000	          0.17619522	         -0.22356269	          0.47540588	
          3.91000000	          0.18209952	         -0.23386730	          0.50420990	
          3.92000000	          0.18816198	         -0.24425413	          0.53343480	
          3.93000000	          0.19443251	         -0.25475709	          0.56300476	
          3.94000000	          0.20096857	         -0.26540830	          0.59284242	
          3.95000000	          0.20783437	         -0.27623929	          0.62286867	
          3.96000000	          0.21509972	         -0.28728068	          0.65300201	
          3.97000000	          0.22283817	         -0.29855995	          0.68315768	
          3.98000000	          0.23112468	         -0.31009762	          0.71324673	
          3.99000000	          0.24003264	         -0.32190273	          0.74317509	
          4.00000000	          0.24963062	         -0.33396920	          0.77284273	
          4.01000000	          0.25997919	         -0.34627429	          0.80214311	
          4.02000000	          0.27112805	         -0.35877988	          0.83096315	
          4.03000000	          0.28311383	         -0.37143646	          0.85918380	
          4.04000000	          0.29595896	         -0.38418920	          0.88668111	
          4.05000000	          0.30967154	         -0.39698542	          0.91332763	
          4.06000000	          0.32424624	         -0.40978255	          0.93899406	
          4.07000000	          0.33966576	         -0.42255527	          0.96355119	
          4.08000000	          0.35590251	         -0.43529990	          0.98687217	
          4.09000000	          0.37292018	         -0.44803489	          1.00883527	
          4.10000000	          0.39067523	         -0.46079698	          1.02932701	
          4.11000000	          0.40911869	         -0.47363318	          1.04824558	
          4.12000000	          0.42819836	         -0.48659022	          1.06550414	
          4.13000000	          0.44786148	         -0.49970321	          1.08103373	
          4.14000000	          0.46805746	         -0.51298603	          1.09478538	
          4.15000000	          0.48874031	         -0.52642472	          1.10673146	
          4.16000000	          0.50987018	         -0.53997382	          1.11686613	
          4.17000000	          0.53141408	         -0.55355443	          1.12520475	
          4.18000000	          0.55334553	         -0.56705301	          1.13178246	
          4.19000000	          0.57564331	         -0.58032161	          1.13665228	
          4.20000000	          0.59828943	         -0.59318083	          1.13988313	
